<svg width="20.000000" height="20.000000" viewBox="0 0 20 20" fill="none" xmlns="http://www.w3.org/2000/svg" xmlns:xlink="http://www.w3.org/1999/xlink">
	<desc>
			Created with Pixso.
	</desc>
	<defs>
		<clipPath id="clip407_857">
			<rect id="ion:call" width="20.000000" height="20.000000" fill="white" fill-opacity="0"/>
		</clipPath>
	</defs>
	<rect id="ion:call" width="20.000000" height="20.000000" fill="#FFFFFF" fill-opacity="0"/>
	<g clip-path="url(#clip407_857)">
		<path id="Vector" d="M15.2734 18.75C14.5107 18.75 13.4395 18.4742 11.8359 17.5781C9.88574 16.4844 8.37695 15.4746 6.4375 13.5399C4.56641 11.6707 3.65625 10.4606 2.38281 8.14258C0.943359 5.52539 1.18945 4.1535 1.46289 3.5672C1.79004 2.86639 2.27148 2.44727 2.89453 2.03125C3.24902 1.79938 3.62305 1.60065 4.01367 1.4375C4.05273 1.42072 4.08887 1.40466 4.12109 1.39026C4.31445 1.3031 4.60742 1.17151 4.97852 1.31213C5.22656 1.40509 5.44727 1.59534 5.79395 1.93713C6.50391 2.63708 7.47363 4.19611 7.83105 4.96173C8.07129 5.47772 8.23047 5.81836 8.23047 6.20038C8.23047 6.64764 8.00586 6.99255 7.73242 7.36487C7.68164 7.43475 7.63086 7.50159 7.58203 7.56641C7.28418 7.95703 7.21875 8.06995 7.26172 8.27148C7.34961 8.67657 7.99902 9.88245 9.06641 10.9476C10.1338 12.0129 11.3047 12.6215 11.7119 12.7082C11.9219 12.7531 12.0371 12.6852 12.4404 12.3773C12.498 12.3332 12.5576 12.2875 12.6191 12.2418C13.0361 11.932 13.3652 11.7129 13.8018 11.7129L13.8037 11.7129C14.1836 11.7129 14.5098 11.8777 15.0488 12.1496C15.752 12.5043 17.3574 13.4617 18.0615 14.1722C18.4043 14.5176 18.5957 14.7379 18.6885 14.9852C18.8291 15.3574 18.6973 15.6492 18.6104 15.8445C18.5957 15.877 18.5801 15.9125 18.5635 15.952C18.3994 16.3416 18.1992 16.7153 17.9658 17.0684C17.5508 17.6895 17.1299 18.1703 16.4277 18.4973C16.0674 18.6678 15.6729 18.7543 15.2734 18.75Z" fill="#F2DAC2" fill-opacity="1.000000" fill-rule="nonzero"/>
	</g>
</svg>
