<svg width="21" height="20" viewBox="0 0 21 20" fill="none" xmlns="http://www.w3.org/2000/svg">
<path d="M1.75 17.8125C1.75 18.0611 1.84877 18.2996 2.02459 18.4754C2.2004 18.6512 2.43886 18.75 2.6875 18.75H18.3125C18.5611 18.75 18.7996 18.6512 18.9754 18.4754C19.1512 18.2996 19.25 18.0611 19.25 17.8125V6.875H1.75V17.8125ZM14.25 8.28125C14.25 8.23981 14.2665 8.20007 14.2958 8.17076C14.3251 8.14146 14.3648 8.125 14.4062 8.125H15.9688C16.0102 8.125 16.0499 8.14146 16.0792 8.17076C16.1085 8.20007 16.125 8.23981 16.125 8.28125V9.84375C16.125 9.88519 16.1085 9.92493 16.0792 9.95424C16.0499 9.98354 16.0102 10 15.9688 10H14.4062C14.3648 10 14.3251 9.98354 14.2958 9.95424C14.2665 9.92493 14.25 9.88519 14.25 9.84375V8.28125ZM14.25 11.4062C14.25 11.3648 14.2665 11.3251 14.2958 11.2958C14.3251 11.2665 14.3648 11.25 14.4062 11.25H15.9688C16.0102 11.25 16.0499 11.2665 16.0792 11.2958C16.1085 11.3251 16.125 11.3648 16.125 11.4062V12.9688C16.125 13.0102 16.1085 13.0499 16.0792 13.0792C16.0499 13.1085 16.0102 13.125 15.9688 13.125H14.4062C14.3648 13.125 14.3251 13.1085 14.2958 13.0792C14.2665 13.0499 14.25 13.0102 14.25 12.9688V11.4062ZM11.125 8.28125C11.125 8.23981 11.1415 8.20007 11.1708 8.17076C11.2001 8.14146 11.2398 8.125 11.2812 8.125H12.8438C12.8852 8.125 12.9249 8.14146 12.9542 8.17076C12.9835 8.20007 13 8.23981 13 8.28125V9.84375C13 9.88519 12.9835 9.92493 12.9542 9.95424C12.9249 9.98354 12.8852 10 12.8438 10H11.2812C11.2398 10 11.2001 9.98354 11.1708 9.95424C11.1415 9.92493 11.125 9.88519 11.125 9.84375V8.28125ZM11.125 11.4062C11.125 11.3648 11.1415 11.3251 11.1708 11.2958C11.2001 11.2665 11.2398 11.25 11.2812 11.25H12.8438C12.8852 11.25 12.9249 11.2665 12.9542 11.2958C12.9835 11.3251 13 11.3648 13 11.4062V12.9688C13 13.0102 12.9835 13.0499 12.9542 13.0792C12.9249 13.1085 12.8852 13.125 12.8438 13.125H11.2812C11.2398 13.125 11.2001 13.1085 11.1708 13.0792C11.1415 13.0499 11.125 13.0102 11.125 12.9688V11.4062ZM11.125 14.5312C11.125 14.4898 11.1415 14.4501 11.1708 14.4208C11.2001 14.3915 11.2398 14.375 11.2812 14.375H12.8438C12.8852 14.375 12.9249 14.3915 12.9542 14.4208C12.9835 14.4501 13 14.4898 13 14.5312V16.0938C13 16.1352 12.9835 16.1749 12.9542 16.2042C12.9249 16.2335 12.8852 16.25 12.8438 16.25H11.2812C11.2398 16.25 11.2001 16.2335 11.1708 16.2042C11.1415 16.1749 11.125 16.1352 11.125 16.0938V14.5312ZM8 11.4062C8 11.3648 8.01646 11.3251 8.04576 11.2958C8.07507 11.2665 8.11481 11.25 8.15625 11.25H9.71875C9.76019 11.25 9.79993 11.2665 9.82924 11.2958C9.85854 11.3251 9.875 11.3648 9.875 11.4062V12.9688C9.875 13.0102 9.85854 13.0499 9.82924 13.0792C9.79993 13.1085 9.76019 13.125 9.71875 13.125H8.15625C8.11481 13.125 8.07507 13.1085 8.04576 13.0792C8.01646 13.0499 8 13.0102 8 12.9688V11.4062ZM8 14.5312C8 14.4898 8.01646 14.4501 8.04576 14.4208C8.07507 14.3915 8.11481 14.375 8.15625 14.375H9.71875C9.76019 14.375 9.79993 14.3915 9.82924 14.4208C9.85854 14.4501 9.875 14.4898 9.875 14.5312V16.0938C9.875 16.1352 9.85854 16.1749 9.82924 16.2042C9.79993 16.2335 9.76019 16.25 9.71875 16.25H8.15625C8.11481 16.25 8.07507 16.2335 8.04576 16.2042C8.01646 16.1749 8 16.1352 8 16.0938V14.5312ZM4.875 11.4062C4.875 11.3648 4.89146 11.3251 4.92076 11.2958C4.95007 11.2665 4.98981 11.25 5.03125 11.25H6.59375C6.63519 11.25 6.67493 11.2665 6.70424 11.2958C6.73354 11.3251 6.75 11.3648 6.75 11.4062V12.9688C6.75 13.0102 6.73354 13.0499 6.70424 13.0792C6.67493 13.1085 6.63519 13.125 6.59375 13.125H5.03125C4.98981 13.125 4.95007 13.1085 4.92076 13.0792C4.89146 13.0499 4.875 13.0102 4.875 12.9688V11.4062ZM4.875 14.5312C4.875 14.4898 4.89146 14.4501 4.92076 14.4208C4.95007 14.3915 4.98981 14.375 5.03125 14.375H6.59375C6.63519 14.375 6.67493 14.3915 6.70424 14.4208C6.73354 14.4501 6.75 14.4898 6.75 14.5312V16.0938C6.75 16.1352 6.73354 16.1749 6.70424 16.2042C6.67493 16.2335 6.63519 16.25 6.59375 16.25H5.03125C4.98981 16.25 4.95007 16.2335 4.92076 16.2042C4.89146 16.1749 4.875 16.1352 4.875 16.0938V14.5312ZM18.3125 2.5H16.1281V1.25H14.2531V2.5H6.74687V1.25H4.87187V2.5H2.6875C2.56485 2.49897 2.44322 2.52222 2.3296 2.5684C2.21597 2.61459 2.11261 2.6828 2.02547 2.76911C1.93833 2.85542 1.86912 2.95811 1.82185 3.07129C1.77457 3.18446 1.75015 3.30587 1.75 3.42852V5.625H19.25V3.42852C19.2498 3.30587 19.2254 3.18446 19.1782 3.07129C19.1309 2.95811 19.0617 2.85542 18.9745 2.76911C18.8874 2.6828 18.784 2.61459 18.6704 2.5684C18.5568 2.52222 18.4351 2.49897 18.3125 2.5Z" fill="#F2DAC2"/>
</svg>
