<svg width="32" height="32" viewBox="0 0 32 32" fill="none" xmlns="http://www.w3.org/2000/svg">
<g clip-path="url(#clip0_407_911)">
<path d="M16.0006 0.639893C7.51743 0.639893 0.640625 7.51669 0.640625 15.9999C0.640625 24.4831 7.51743 31.3599 16.0006 31.3599C24.4838 31.3599 31.3606 24.4831 31.3606 15.9999C31.3606 7.51669 24.4838 0.639893 16.0006 0.639893ZM21.9078 17.9695C21.9078 17.9695 23.2662 19.3103 23.6006 19.9327C23.6102 19.9455 23.615 19.9583 23.6182 19.9647C23.7542 20.1935 23.7862 20.3711 23.719 20.5039C23.607 20.7247 23.223 20.8335 23.0918 20.8431H20.6918C20.5254 20.8431 20.1766 20.7999 19.7542 20.5087C19.4294 20.2815 19.1094 19.9087 18.7974 19.5455C18.3318 19.0047 17.9286 18.5375 17.5222 18.5375C17.4706 18.5374 17.4193 18.5455 17.3702 18.5615C17.063 18.6607 16.6694 19.0991 16.6694 20.2671C16.6694 20.6319 16.3814 20.8415 16.1782 20.8415H15.079C14.7046 20.8415 12.7542 20.7103 11.0262 18.8879C8.91103 16.6559 7.00702 12.1791 6.99102 12.1375C6.87103 11.8479 7.11903 11.6927 7.38942 11.6927H9.81343C10.1366 11.6927 10.2422 11.8895 10.3158 12.0639C10.4022 12.2671 10.719 13.0751 11.239 13.9839C12.0822 15.4655 12.599 16.0671 13.0134 16.0671C13.0911 16.0662 13.1674 16.0464 13.2358 16.0095C13.7766 15.7087 13.6758 13.7807 13.6518 13.3807C13.6518 13.3055 13.6502 12.5183 13.3734 12.1407C13.175 11.8671 12.8374 11.7631 12.6326 11.7247C12.7155 11.6103 12.8247 11.5176 12.951 11.4543C13.3222 11.2687 13.991 11.2415 14.655 11.2415H15.0246C15.7446 11.2511 15.9302 11.2975 16.191 11.3631C16.719 11.4895 16.7302 11.8303 16.6838 12.9967C16.6694 13.3279 16.655 13.7023 16.655 14.1439C16.655 14.2399 16.6502 14.3423 16.6502 14.4511C16.6342 15.0447 16.615 15.7183 17.0342 15.9951C17.0889 16.0294 17.1521 16.0477 17.2166 16.0479C17.3622 16.0479 17.8006 16.0479 18.9878 14.0111C19.354 13.3555 19.6721 12.6743 19.9398 11.9727C19.9638 11.9311 20.0342 11.8031 20.1174 11.7535C20.1788 11.7222 20.2469 11.7063 20.3158 11.7071H23.1654C23.4758 11.7071 23.6886 11.7535 23.7286 11.8735C23.799 12.0639 23.7158 12.6447 22.415 14.4063L21.8342 15.1727C20.655 16.7183 20.655 16.7967 21.9078 17.9695Z" fill="white"/>
</g>
<defs>
<clipPath id="clip0_407_911">
<rect width="32" height="32" fill="white"/>
</clipPath>
</defs>
</svg>
