<?xml version="1.0" encoding="iso-8859-1"?>
<!-- Uploaded to: SVG Repo, www.svgrepo.com, Generator: SVG Repo Mixer Tools -->
<!DOCTYPE svg PUBLIC "-//W3C//DTD SVG 1.1//EN" "http://www.w3.org/Graphics/SVG/1.1/DTD/svg11.dtd">
<svg width="32" height="32" viewBox="0 0 32 32" fill="none" xmlns="http://www.w3.org/2000/svg">
<circle cx="16" cy="16" r="16" fill="white"/>
<path d="M23.6 15.8C23.6 20.088 20.088 23.6 15.8 23.6C14.456 23.6 13.184 23.264 12.064 22.648L8 23.8L9.392 19.856C8.712 18.704 8.304 17.336 8.304 15.8C8.304 11.512 11.816 8 16.104 8C20.392 8 23.6 11.512 23.6 15.8ZM16.104 9.2C12.456 9.2 9.504 12.152 9.504 15.8C9.504 17.272 9.968 18.592 10.736 19.688L9.888 22.024L12.352 21.208C13.376 21.928 14.696 22.4 16.104 22.4C19.752 22.4 22.704 19.448 22.704 15.8C22.704 12.152 19.752 9.2 16.104 9.2ZM20.088 17.784C20.04 17.704 19.912 17.656 19.712 17.56C19.512 17.464 18.52 16.984 18.336 16.92C18.152 16.856 18.024 16.824 17.896 17.016C17.768 17.208 17.432 17.656 17.32 17.784C17.208 17.912 17.096 17.928 16.896 17.832C16.696 17.736 16.024 17.528 15.24 16.856C14.608 16.328 14.2 15.688 14.088 15.496C13.976 15.304 14.072 15.208 14.168 15.112C14.256 15.024 14.36 14.888 14.456 14.776C14.552 14.664 14.584 14.584 14.648 14.456C14.712 14.328 14.68 14.216 14.632 14.12C14.584 14.024 14.2 13.064 14.04 12.68C13.88 12.296 13.72 12.36 13.608 12.36C13.496 12.36 13.368 12.344 13.24 12.344C13.112 12.344 12.904 12.392 12.72 12.584C12.536 12.776 12.04 13.256 12.04 14.216C12.04 15.176 12.72 16.104 12.816 16.232C12.912 16.36 14.2 18.376 16.216 19.208C18.232 20.04 18.232 19.784 18.6 19.752C18.968 19.72 19.792 19.272 19.952 18.824C20.112 18.376 20.112 18 20.088 17.784Z" fill="#272727"/>
</svg>